<?xml version="1.0" encoding="UTF-8"?>
<svg width="600px" height="700px" viewBox="0 0 600 700" version="1.1" xmlns="http://www.w3.org/2000/svg" xmlns:xlink="http://www.w3.org/1999/xlink">
    <!-- Generator: Sketch 52.4 (67378) - http://www.bohemiancoding.com/sketch -->
    <title>Artboard</title>
    <desc>Created with Sketch.</desc>
    <defs>
        <filter x="-1.6%" y="-2.4%" width="103.3%" height="104.7%" filterUnits="objectBoundingBox" id="filter-1">
            <feGaussianBlur stdDeviation="2" in="SourceGraphic"></feGaussianBlur>
        </filter>
    </defs>
    <g id="Artboard" stroke="none" stroke-width="1" fill="none" fill-rule="evenodd">
        <g id="Group" transform="translate(20.000000, 220.000000)">
            <path d="M0,180 C93.3333333,60 186.666667,7.34788079e-15 280,0 C373.333333,0 466.666667,60 560,180 C466.666667,300 373.333333,360 280,360 C186.666667,360 93.3333333,300 0,180 Z" id="Path-2" stroke="#000000" stroke-width="5" filter="url(#filter-1)"></path>
            <circle id="Oval" stroke="#4A90E2" fill="#4A4A4A" cx="280" cy="180" r="150"></circle>
            <g id="Blank_globe" transform="translate(146.000000, 45.000000)">
                <path d="M269,135.502022 C269,209.781431 208.783241,270 134.502022,270 C60.2208025,270 0,209.782779 0,135.502022 C0,61.2185691 60.2194545,1 134.502022,1 C208.784589,1 269,61.2185691 269,135.502022 Z" id="Path" stroke="#CCCCCC" stroke-width="0.75" fill="#FFFFFF"></path>
                <path d="M124.967159,260.918134 C124.286164,260.815952 123.702261,260.485205 123.660458,260.196138 C123.624048,259.900348 123.575502,259.453974 123.545835,259.198519 C123.473016,258.574671 120.322909,255.823823 118.255652,254.576127 C117.211909,253.952279 116.375836,252.993651 116.033316,252.035022 C115.724509,251.187987 115.309169,250.49288 115.110939,250.49288 C114.916754,250.49288 114.758979,250.203813 114.758979,249.848865 C114.758979,249.489883 114.331503,248.90637 113.810981,248.535288 C113.294503,248.176307 112.997832,247.662708 113.16235,247.399186 C113.347095,247.103396 113.192017,247.025415 112.760496,247.18541 C112.250761,247.385741 112.066016,247.15852 112.066016,246.369299 C112.066016,245.686292 111.291974,244.48162 109.994713,243.122331 C107.854636,240.907939 106.936305,238.185326 107.904531,236.957798 C108.151307,236.649907 108.480342,235.848585 108.64486,235.176335 C108.80668,234.506774 109.544312,233.509155 110.277899,232.963288 C111.871831,231.790884 111.91768,231.357955 110.673011,229.256501 C110.152488,228.377198 109.846377,227.356722 109.994713,226.972195 C110.139003,226.598424 109.425644,224.576296 108.404826,222.49501 C107.028003,219.666181 105.91279,218.115973 104.032974,216.40308 C101.76479,214.341961 99.4898625,211.222721 99.4898625,210.169977 C99.4898625,209.956201 99.795973,209.769316 100.164115,209.769316 C100.621258,209.769316 100.842413,209.302774 100.851852,208.3186 C100.861292,207.517278 101.16066,206.473946 101.526104,205.99396 C102.697955,204.445095 102.006172,201.269386 100.762851,202.500948 C100.45674,202.811528 99.9470055,203.058916 99.6206674,203.058916 C98.7940341,203.058916 98.8965205,201.745339 99.7528209,201.41997 C101.052779,200.921161 99.4332253,200.38605 96.5730472,200.373949 C95.0910407,200.367227 93.6521863,200.20992 93.3757429,200.032446 C93.0992995,199.844216 92.3387429,198.654333 91.6968548,197.375714 C90.6692943,195.344174 90.2971071,195.00536 88.8258886,194.729737 C86.5671435,194.307564 83.7959667,194.312942 79.7356196,194.747216 C76.5787704,195.088719 76.2227652,195.03225 74.1217952,193.909592 C72.3835728,192.984576 71.0107952,192.655174 68.0602673,192.46291 C63.6911126,192.169809 63.3256679,191.9399 59.4015197,186.947771 C58.140668,185.34916 56.1880334,183.195271 55.0660776,182.155972 C53.7256641,180.914999 53.1930048,180.149978 53.5220399,179.91738 C54.3257486,179.359412 53.7162246,176.886876 52.4162662,175.429438 C51.760893,174.693997 50.9679723,173.716545 50.6578163,173.256726 C50.3449632,172.787495 49.6801505,171.803321 49.1798553,171.070569 C48.5056031,170.07295 48.3572676,169.383221 48.5973014,168.385602 C48.778001,167.643438 48.9425185,166.039449 48.9533066,164.807887 C48.9694886,163.380028 49.2364925,162.332662 49.6909386,161.899733 C50.6362402,161.006985 51.5640113,158.768392 50.9908969,158.768392 C50.7508631,158.768392 50.5526329,158.164712 50.5526329,157.422548 C50.5526329,156.687106 50.72659,156.083426 50.9410023,156.083426 C51.1554145,156.083426 51.306447,156.435685 51.2794769,156.86458 C51.1581115,158.624531 52.0535185,157.948247 52.218036,156.15334 C52.3394015,154.855897 52.2409606,154.304652 51.9254106,154.504983 C51.3266745,154.869342 51.319932,154.967491 52.1222922,151.1639 C52.6684366,148.566325 53.1525497,147.561984 54.7073754,145.763043 C55.7578604,144.54627 56.9688175,143.442435 57.400339,143.305296 C57.8345574,143.166813 58.1838201,142.760774 58.1838201,142.392381 C58.1838201,141.203843 59.5471582,139.6375 60.8039644,139.388768 C61.5024898,139.24894 62.3088955,138.643914 62.6541126,138.003932 C63.1314832,137.117907 63.499625,136.924299 64.3127732,137.124629 C64.9614039,137.292692 65.3700008,137.194543 65.3700008,136.874552 C65.3700008,136.592207 65.6208226,136.398599 65.9296301,136.452379 C66.2384377,136.500781 66.7953701,136.413389 67.1648603,136.256082 C67.533002,136.101465 68.3663778,135.785507 69.008266,135.55022 C69.9104155,135.222162 70.2434961,134.723352 70.4606054,133.403053 C70.8395351,131.023288 73.5351957,128.288574 76.1917496,127.586745 C78.7107561,126.923907 80.5905714,124.6033 80.2804154,122.528736 C80.1455649,121.599686 79.8300149,121.18558 79.2595975,121.18558 C78.8091969,121.18558 78.3183413,120.982561 78.1659603,120.739206 C78.0108823,120.493163 77.497102,120.290143 77.0143374,120.290143 C75.9800344,120.290143 75.9409278,119.928473 76.8336378,118.743968 C77.2557197,118.188689 77.4000097,117.371233 77.2354922,116.498653 C77.031868,115.405574 77.2584167,114.765592 78.3480084,113.39958 C79.7733777,111.614084 80.6229355,109.306922 80.6296781,107.221602 C80.6323751,106.17827 80.8926364,105.937604 82.4730838,105.511398 C84.0009394,105.104014 84.4445974,105.137627 85.0864855,105.718451 C85.5139615,106.102978 86.1625922,106.417591 86.5253399,106.417591 C86.8907846,106.417591 87.3843373,106.62061 87.6284166,106.861276 C87.8684504,107.100597 89.0740135,107.606129 90.2984556,107.977211 C92.4385323,108.626605 92.5639432,108.617193 93.3015752,107.733856 C93.7263541,107.225635 94.2064217,106.115078 94.3614997,105.272077 C94.6999744,103.479858 94.2495739,100.608006 93.6306103,100.608006 C93.397319,100.608006 93.2031343,100.32835 93.2031343,99.9814687 C93.2031343,99.6372767 92.8997208,99.2433381 92.5288821,99.0981321 C92.1364672,98.9475481 91.8573268,98.277987 91.8573268,97.4860765 C91.8573268,96.2061123 91.9557676,96.1308203 93.6157767,96.1308203 C94.5867,96.1308203 95.4888495,96.3835864 95.634488,96.6914769 C95.776081,96.9993674 95.7666415,96.7640799 95.618306,96.1765333 C95.4038937,95.3294983 95.4969405,95.1587467 96.0430849,95.3684888 C96.4247117,95.5163838 96.8198235,95.3953788 96.9290524,95.0995887 C97.0571603,94.7325402 97.403726,94.8145547 98.0321291,95.3752113 C98.9019145,96.1429208 99.0367649,96.1469543 100.679243,95.4276468 L102.410723,94.6666597 L100.837018,94.2754101 C99.9739756,94.0616346 97.7516401,93.8088686 95.8987949,93.7107201 C94.0446012,93.6192941 92.1755739,93.5171121 91.7467494,93.4942556 C90.5290498,93.4216526 90.8216753,92.696967 92.1917559,92.3917655 C92.8727507,92.2411815 93.8315374,91.8042189 94.3277871,91.4237254 C95.0559796,90.8590353 95.1045257,90.6587048 94.597488,90.3440918 C93.7708547,89.8385597 94.3048625,88.5290166 95.3418625,88.5290166 C95.9405985,88.5290166 96.1550108,88.1969251 96.1415257,87.301488 C96.1280407,86.2218544 96.2804217,86.0874043 97.3565283,86.2016869 C98.4501655,86.3132804 98.5850159,86.1855529 98.5418638,85.0817182 C98.5121967,84.3207312 98.4097103,84.1392237 98.2856479,84.6124877 C98.173722,85.0454167 97.7718677,85.3936423 97.3929379,85.3936423 C96.968159,85.3936423 96.8009444,85.1408763 96.9546739,84.7308037 C97.1690862,84.1755252 97.0665998,84.1567022 96.3289678,84.6165212 C95.8448547,84.9217227 95.4470459,85.5885948 95.4470459,86.1062274 C95.4470459,86.6211709 95.0950862,87.3539235 94.6608677,87.7303835 C93.7519757,88.5209496 90.0152696,89.1609316 88.7085687,88.7481701 C87.3722007,88.3246526 87.5299758,86.3979839 88.952648,85.7485903 C89.6309458,85.4433888 89.9990876,84.9835697 89.8574946,84.6192102 C89.5055349,83.7062946 90.9632683,81.7245014 91.76428,82.0256695 C92.1297247,82.169531 92.803977,81.9530664 93.253029,81.5429939 C93.7277026,81.1167874 94.5206233,80.8962893 95.1463294,81.0146054 C95.8677793,81.1530889 96.3936961,80.9420023 96.7402617,80.3974798 C97.0598573,79.8892587 97.0827819,79.5773347 96.8022929,79.5773347 C96.0053268,79.5773347 96.3154828,78.6845866 97.1380706,78.6321511 C97.8851421,78.5797156 97.8851421,78.5703041 97.1380706,78.3766961 C96.080843,78.1010736 96.1469197,77.6089865 97.411817,76.2470079 C98.4987116,75.0746038 99.94296,74.7142777 99.94296,75.6097148 C99.94296,75.9646629 100.137145,75.9539069 100.594288,75.5707243 C100.95299,75.2749343 101.473513,75.1673743 101.745911,75.3381258 C102.015611,75.5061883 102.641318,75.2856903 103.122734,74.8487277 C103.823956,74.2154682 104.113885,74.1697552 104.552148,74.6120957 C104.993109,75.0517473 104.798925,75.4389633 103.640559,76.4796064 C102.379708,77.6116755 102.300146,77.793183 103.078233,77.793183 C104.270311,77.793183 104.270311,79.1887742 103.078233,80.2576518 C102.038536,81.1961129 102.155856,82.7167425 103.578528,86.6426829 C104.553497,89.3505062 104.707227,92.3863875 103.871154,92.6794885 C103.562346,92.791082 103.443678,93.0236805 103.60415,93.1984655 C104.104445,93.7402991 106.47107,92.2438705 107.745407,90.5686233 C108.848484,89.1273191 109.170777,88.9767351 111.159821,88.9767351 C113.583083,88.9767351 113.6586,88.8812756 114.086076,85.4447333 C114.421853,82.779934 114.796737,82.244823 116.815449,81.5550944 C118.155862,81.0925864 118.622445,81.0818304 118.889449,81.4986254 C119.090376,81.8132384 119.238711,81.4327449 119.238711,80.5857098 C119.248151,78.9803767 118.606263,78.7276106 117.201121,79.7911102 C116.721053,80.1527808 115.72316,80.4539488 114.978786,80.4606713 C112.977605,80.4808388 112.368081,79.2102862 112.753753,75.8355908 C113.171789,72.212163 113.877057,70.9617779 116.07512,69.9762593 C117.082453,69.5231627 117.902343,68.9947742 117.902343,68.8038552 C117.902343,68.6075581 118.613005,68.1934521 119.482791,67.8842171 C120.546761,67.49969 121.586458,66.5585399 122.659867,65.0016088 C123.541789,63.7310562 124.747352,62.4309245 125.346088,62.1163115 C125.942127,61.7909425 126.350724,61.4534729 126.248238,61.3486019 C126.145752,61.2464199 125.622532,61.4010374 125.085827,61.6860715 C124.549122,61.9711055 124.002978,62.1001775 123.870824,61.9684165 C123.514819,61.6107795 126.431635,59.0508512 128.31145,58.0787776 C129.220342,57.6095471 130.086082,57.0220005 130.243857,56.7719235 C130.398935,56.5191575 131.119036,56.3121044 131.847229,56.3121044 C132.571376,56.3121044 133.167415,56.1507644 133.167415,55.9571564 C133.167415,55.4287678 135.846893,54.6247568 137.724012,54.5884553 C138.87024,54.5655988 139.717101,54.8869343 140.553174,55.6613664 C141.211244,56.2690804 142.041923,56.7611675 142.39658,56.7611675 C142.755282,56.7611675 143.047907,56.964187 143.047907,57.2102305 C143.047907,57.456274 143.445716,57.6566046 143.936572,57.6566046 C145.526459,57.6566046 150.580654,59.9866233 151.101176,60.9613859 C151.393802,61.4964969 152.097721,61.9334595 152.747701,61.97245 C153.79414,62.034297 153.823807,61.9791725 153.177873,61.2665874 C152.79355,60.8403809 152.476651,60.1573748 152.476651,59.7473023 C152.476651,59.3331962 152.268981,58.9957267 152.024902,58.9957267 C151.778126,58.9957267 151.574502,58.6743912 151.574502,58.2764191 C151.574502,57.7211406 151.910279,57.6001356 153.03628,57.7641646 C153.835944,57.8730691 154.847322,58.1150791 155.274798,58.3019646 C155.850609,58.5520417 156.476316,58.1634811 157.698061,56.8149475 C158.760682,55.6304429 159.873198,54.8882788 160.848167,54.7040823 C163.729921,54.1689712 162.044291,52.281293 158.984534,52.6227961 C157.783016,52.7572461 156.620606,52.5797721 155.722502,52.114575 C154.539863,51.506861 154.283647,51.0712429 154.057098,49.2682682 C153.908763,48.0998976 153.671426,46.638426 153.53253,46.0253339 C152.986386,43.5662432 153.233162,42.3131691 154.438725,41.439244 C155.086007,40.9659799 155.624061,40.2802849 155.624061,39.9132363 C155.624061,39.5166088 155.942308,39.3095558 156.407542,39.4050153 C157.02246,39.5260203 157.154613,39.9038248 157.019763,41.1179084 C156.921322,41.971666 156.822881,44.1470672 156.805351,45.9594534 C156.77029,48.8608847 156.884912,49.3502828 157.780319,50.0722793 C159.116687,51.1492239 163.028699,51.880632 165.280702,51.4732485 L167.078258,51.1451904 L165.840331,50.0749683 C165.162033,49.4806993 164.609146,48.5973627 164.609146,48.1052756 C164.609146,47.6131886 164.32596,46.8979145 163.98344,46.506665 C163.638223,46.1194489 163.213444,45.1177963 163.035442,44.2842063 C162.726634,42.8294571 162.758998,42.7837441 163.855332,43.0566776 C164.84918,43.3027212 165.013698,43.1844051 165.139109,42.1182165 L165.279353,40.8906879 L166.286686,41.977044 C167.106577,42.8536581 167.298064,42.9195386 167.298064,42.3051021 C167.298064,41.890996 167.07691,41.549493 166.800466,41.549493 C166.507841,41.549493 166.385127,41.0829514 166.514583,40.4295244 C166.629206,39.8150878 166.569872,39.3095558 166.378384,39.3095558 C166.1842,39.3095558 165.901014,38.4557982 165.743239,37.4084326 C165.166079,33.6209757 164.992122,33.1383002 164.130427,32.9110796 C162.899243,32.5897441 163.011169,31.2627225 164.269323,31.2438995 C165.251035,31.2277655 165.252383,31.2143205 164.377204,30.7249224 C163.887696,30.4452664 163.330764,29.9962034 163.152761,29.7299923 C162.926213,29.3925228 162.821029,29.3884893 162.814287,29.7205808 C162.807544,29.9827584 161.51298,30.4560224 159.936578,30.7679464 C156.910534,31.368938 155.939611,31.161885 154.690896,29.6425998 C154.101599,28.9340483 154.174418,28.8937133 155.586303,29.1693358 C156.650273,29.3831113 157.449936,29.2580728 158.210492,28.7619522 C158.86182,28.3357457 159.731605,28.1542382 160.382933,28.3182672 C161.024821,28.4796072 161.463085,28.3908702 161.463085,28.1085252 C161.463085,27.7898786 162.137338,27.7239981 163.418417,27.9149172 C164.974591,28.1448267 165.429037,28.0628122 165.650192,27.4981221 C165.988667,26.6120965 167.325035,26.5959625 170.101605,27.4362751 C172.17156,28.0668457 172.23494,28.0560897 172.23494,27.1445186 C172.23494,26.629575 172.586899,25.946569 173.021118,25.6144774 C173.735825,25.0726439 173.699415,25.0175194 172.599036,25.0040744 C171.164227,24.9879404 170.840586,24.5940018 171.187152,23.2737027 C171.393473,22.4898591 171.785888,22.2949066 173.296213,22.2693611 C174.317031,22.2465046 174.899584,22.1308776 174.593474,22.0071836 C174.281969,21.8821451 174.031148,21.5043405 174.031148,21.1601485 C174.031148,19.5454038 169.421959,18.2654397 167.857694,19.4432218 C166.267807,20.6452049 163.255248,19.8895959 163.255248,18.2882962 C163.255248,17.8150322 163.055669,17.3095001 162.807544,17.1589161 C162.001139,16.6627956 162.332871,15.5925734 163.301097,15.5925734 C163.864772,15.5925734 164.3354,15.9502105 164.476993,16.4853215 C164.605101,16.9747196 164.924696,17.3821031 165.183609,17.3821031 C165.443871,17.3821031 166.023728,17.7168837 166.467386,18.1175447 C167.225245,18.7965173 167.303458,18.7965173 167.56372,18.1175447 C167.717449,17.7168837 168.126046,17.3821031 168.472612,17.3821031 C169.216986,17.3821031 169.297897,16.6668291 168.611508,16.239278 C168.341807,16.075249 168.223139,15.5670279 168.341807,15.1139314 C168.495536,14.5236958 168.117955,14.0275753 167.031061,13.3875932 C165.496462,12.4854336 165.025834,11.5859631 166.065531,11.5456281 C166.981166,11.5093265 162.73068,9.46837535 161.019427,9.11342731 C160.152339,8.9359533 157.223387,7.72186968 154.507499,6.41501555 C151.787565,5.10816142 149.110784,3.9075228 148.5552,3.74349379 C147.418411,3.41140226 147.185119,2.61411368 148.215377,2.61411368 C148.583519,2.61411368 148.890978,2.41109416 148.890978,2.16773963 C148.890978,1.92169611 149.194391,1.72136559 149.562533,1.72136559 C149.933372,1.72136559 150.234088,1.92169611 150.234088,2.16773963 C150.234088,2.41109416 150.789672,2.61680268 151.472015,2.61680268 C152.146267,2.61949168 153.311375,2.93813821 154.053053,3.32938775 C155.864094,4.27860484 160.113232,4.73035689 160.113232,3.97340331 C160.113232,3.62248878 160.409903,3.52702927 160.900759,3.71794829 C161.330932,3.8819773 164.009062,4.50851436 166.849012,5.11622842 C169.686266,5.71721998 172.416988,6.40022605 172.91054,6.62879107 C175.119391,7.66271167 177.355211,8.43042125 178.152177,8.43042125 C178.629548,8.43042125 179.616653,8.73831178 180.3408,9.11342731 C181.532878,9.72786387 181.663683,9.72786387 181.663683,9.11342731 C181.663683,8.73965628 181.871353,8.43042125 182.118129,8.43042125 C182.362209,8.43042125 182.565833,8.73562278 182.565833,9.09998231 C182.565833,9.46703085 182.919141,9.77223238 183.356056,9.77223238 C183.79432,9.77223238 185.256099,10.1930609 186.612695,10.7080045 C187.965245,11.220259 189.792469,11.7916716 190.671694,11.9745236 C192.46925,12.3415721 196.931452,14.6393229 196.931452,15.2013239 C196.931452,15.709545 191.815225,14.5774758 187.729257,13.1630617 C187.235704,12.9896212 187.589012,13.3136457 188.510041,13.8823693 C189.431069,14.4510928 190.191626,15.1717449 190.191626,15.4809799 C190.195671,15.7861815 190.406038,16.0389475 190.65686,16.0389475 C190.907682,16.0389475 191.974349,16.8174131 193.014046,17.7760417 C194.05644,18.7346703 197.032589,20.7756215 199.627112,22.3096961 C202.221635,23.8464598 204.973933,25.7005254 205.750671,26.4292445 C206.639336,27.2668681 207.271784,27.5747586 207.460575,27.2695571 C207.89749,26.5636945 207.341907,25.884722 206.57191,26.1791675 C205.948901,26.4157995 205.843718,26.2517705 205.735838,24.8790359 C205.711565,24.5711453 205.382529,24.0844363 205.018433,23.7994023 C203.671277,22.7520366 204.988766,22.7291801 208.001325,23.7335217 C211.137947,24.7835763 212.067066,25.4141469 211.240433,25.919679 C210.966687,26.0931195 211.085355,26.323029 211.530362,26.497814 C211.945701,26.6551205 212.474315,26.6658765 212.708955,26.5206705 C212.946291,26.3727755 213.415571,26.484369 213.762137,26.766714 C214.107354,27.0557816 215.009503,27.3018251 215.77006,27.3219926 C216.773347,27.3542606 217.119913,27.5586246 217.034957,28.0802907 C216.962138,28.5468322 217.254763,28.7995982 217.893955,28.8090097 C219.059062,28.8251437 223.430914,32.3705906 223.430914,33.2956067 C223.430914,34.2044888 222.807905,34.0928953 221.818103,33.0038502 C221.350172,32.4889066 220.563994,31.87447 220.066395,31.637838 C219.003774,31.132306 221.617176,33.5416502 225.545369,36.6824025 C227.154135,37.9690891 228.909888,39.8957578 229.690672,41.2389135 C231.095814,43.6321237 236.504666,49.4121298 239.190887,51.388545 L240.709303,52.5085136 L239.023672,50.2107628 C237.267919,47.8148636 237.071037,47.3617671 237.758775,47.3617671 C238.350768,47.3617671 246.070957,57.6095471 245.728437,57.9443276 C245.570662,58.0989451 245.136443,57.9712176 244.76021,57.6592936 C243.802772,56.864694 243.910652,57.321824 244.974623,58.5453192 C245.859242,59.5698283 246.128942,60.3348488 245.600329,60.3348488 C245.449296,60.3348488 244.285537,59.2283252 243.012548,57.8757581 C241.738212,56.5272245 240.511073,55.4166673 240.288569,55.4166673 C240.064718,55.4166673 239.482164,55.0657528 238.995353,54.6355128 C238.122871,53.8637697 238.122871,53.8678032 238.859155,55.3050738 C239.345965,56.2475684 239.425526,56.7557895 239.096491,56.7557895 C238.817351,56.7557895 238.708122,57.074436 238.852412,57.4522405 C239.027718,57.9053371 238.941413,58.0397871 238.612378,57.8300451 C237.578075,57.1994745 238.731047,58.5224627 239.985156,59.4084882 L241.255447,60.3146813 L241.101718,58.9822817 C240.853593,56.84856 241.707196,57.44014 243.221567,60.4531648 C245.025866,64.0443247 245.456039,64.5821247 245.903742,63.8574392 C246.145125,63.4729121 246.921863,64.0376022 248.416006,65.6819259 C250.852754,68.3534476 252.024604,70.0932308 254.032528,73.9869032 C254.795781,75.4604753 255.843569,77.1088325 256.36544,77.63991 C257.945888,79.2452432 258.463713,79.9766513 259.137966,81.5913959 C259.994266,83.6229356 259.980781,84.6729902 259.098859,84.3355207 C258.571594,84.1325012 258.506866,84.2508172 258.833204,84.8477752 C259.425197,85.9610213 261.133752,94.2592761 261.133752,96.0272938 C261.133752,96.8514724 261.572016,98.4689061 262.108721,99.6251762 C263.199661,101.982085 263.784912,106.42028 263.004128,106.42028 C262.738473,106.42028 262.293466,105.566522 262.022417,104.519157 C261.216011,101.407983 261.060933,100.97371 260.843824,101.196897 C260.729201,101.311179 260.927431,102.968948 261.295573,104.890239 C261.901051,108.080738 262.120858,108.531145 263.929202,110.198325 C266.464391,112.532377 267.234387,115.260368 267.636241,123.315268 C267.892457,128.521173 267.846608,129.24317 267.223599,129.24317 C266.839275,129.24317 266.51968,128.940657 266.51968,128.573609 C266.51968,128.202526 266.216266,127.901358 265.85217,127.901358 C265.484028,127.901358 265.180614,127.598846 265.180614,127.234486 C265.180614,126.230145 264.386345,126.423753 264.041128,127.50742 C263.672986,128.666379 264.205646,133.275325 264.705941,133.275325 C264.909565,133.275325 265.202191,134.135806 265.359966,135.181827 C265.567635,136.53036 265.93308,137.226811 266.604635,137.532013 C268.597725,138.444928 269.626634,146.684025 268.590982,153.397114 C268.228235,155.727133 267.715803,157.706237 267.451496,157.797663 C267.188538,157.881022 266.971429,158.244037 266.971429,158.58554 C266.971429,158.937799 266.767804,159.222834 266.51968,159.222834 C266.272903,159.222834 266.071976,158.917632 266.071976,158.54655 C266.071976,157.699515 264.219131,153.682148 263.735018,153.477784 C263.145721,153.231741 263.330466,152.421007 264.100462,151.860351 C264.739654,151.393809 264.689759,151.245914 263.648713,150.569631 C262.159964,149.594868 262.138388,148.062138 263.582637,146.709571 C264.514453,145.83699 264.807079,145.764387 265.390981,146.243029 C265.775305,146.561676 266.213569,146.696126 266.372693,146.538819 C266.827139,146.083034 265.12128,140.433444 264.529287,140.433444 C264.220479,140.433444 263.656804,138.947772 263.211798,136.967323 C261.871384,130.977575 261.489758,129.545682 260.525577,126.789457 L259.577578,124.10449 L259.11639,126.529968 C258.671383,128.837131 257.736869,130.012224 257.360637,128.729571 C257.266241,128.401512 256.95204,127.274821 256.668854,126.231489 C256.382971,125.184124 255.981117,124.330366 255.777492,124.330366 C255.567126,124.330366 254.627218,123.624504 253.683265,122.764023 C252.742009,121.896821 251.856041,121.197681 251.721191,121.204403 C251.246517,121.217848 248.553554,127.562544 248.553554,128.658312 C248.553554,129.259304 248.270368,130.693885 247.927847,131.8515 C247.183473,134.356304 246.224686,139.792118 246.270535,141.258967 C246.288066,141.834413 245.816089,143.310674 245.224096,144.547615 C244.227551,146.626212 244.189793,146.908557 244.78718,148.320282 C245.136443,149.163284 245.447948,150.802229 245.472221,151.966566 C245.527509,154.494227 246.164004,156.855169 246.923212,157.323055 C248.046516,158.012783 249.448961,160.526999 249.448961,161.849987 C249.448961,163.550779 248.647949,165.357788 247.739057,165.703324 C246.823422,166.054239 246.382461,165.266362 246.025108,162.666098 C245.702815,160.293056 245.129701,160.37507 244.307113,162.916175 C243.944365,164.025388 243.57892,164.373614 242.74959,164.373614 C241.890593,164.373614 241.399737,163.865392 240.389707,161.911834 C239.687136,160.5633 238.914443,159.384174 238.66497,159.306193 C238.414148,159.221489 237.716971,158.114965 237.111493,156.844413 C236.506014,155.575205 235.51756,154.015584 234.925567,153.382325 C234.333573,152.751754 233.710564,151.793126 233.536607,151.258015 C233.365347,150.724248 233.02013,150.283252 232.762566,150.283252 C232.507698,150.283252 232.401166,150.00763 232.53332,149.666127 C232.665473,149.324624 232.285195,148.329693 231.682413,147.453079 C231.085026,146.576465 230.599564,145.656827 230.599564,145.410784 C230.599564,145.160707 229.864629,145.055836 228.900449,145.170118 C227.760962,145.308602 226.632264,145.082726 225.444231,144.473667 C224.469263,143.978891 223.409338,143.571507 223.093788,143.571507 C222.778238,143.571507 222.513931,143.285129 222.513931,142.936903 C222.513931,142.585989 221.894967,142.166505 221.137108,142.002476 C220.379248,141.834413 219.652404,141.41224 219.517554,141.059981 C219.378658,140.709067 218.866226,140.199501 218.371325,139.941357 C217.664709,139.567586 217.21296,139.641534 216.290583,140.311095 C215.6433,140.777636 214.398631,141.447197 213.538285,141.7887 C212.672545,142.140959 211.573514,142.779597 211.089401,143.230004 C210.602591,143.672345 209.999809,143.958724 209.743593,143.867298 C209.483332,143.77856 208.364073,143.968135 207.256951,144.300227 C204.74199,145.055836 202.217589,145.081381 201.508276,144.375519 C200.718052,143.591675 200.794917,145.07197 201.626944,146.67058 C202.384804,148.134741 203.312575,148.597249 204.746035,148.239612 C205.367696,148.082305 206.401999,148.367339 207.445741,148.981776 C209.022143,149.904103 209.117887,150.080233 208.850883,151.582039 C208.697154,152.468065 208.455771,153.94567 208.315527,154.870687 C208.160449,155.888473 207.815232,156.547278 207.433605,156.547278 C207.011523,156.547278 206.803853,157.091801 206.803853,158.231937 C206.803853,159.427198 206.550334,160.072558 205.908446,160.473219 C205.414894,160.779765 205.006297,161.452015 205.006297,161.960236 C205.006297,162.524926 204.643549,162.991467 204.087965,163.135329 C203.531033,163.27919 203.067147,163.87077 202.916115,164.621002 C202.761037,165.399467 202.299848,165.960124 201.707855,166.114741 C200.213712,166.495235 197.454671,168.979871 197.296896,170.089084 C197.209243,170.710243 196.303048,171.641981 194.910043,172.550863 C193.674813,173.358908 192.184716,174.458709 191.604859,174.996509 C190.261748,176.233449 186.100263,178.915727 185.520406,178.915727 C185.276327,178.915727 184.533301,179.437393 183.863094,180.077375 C183.122765,180.788616 182.076326,181.265913 181.180919,181.307593 C179.86343,181.370784 179.607214,181.169109 178.694276,179.36479 C177.423985,176.843852 177.097647,175.902702 176.942569,174.261067 C176.857613,173.350841 176.129421,172.330365 174.555716,170.902506 C173.311046,169.770437 172.178302,168.434004 172.034012,167.91906 C171.892419,167.406806 171.118378,166.707666 170.321412,166.352718 C169.191365,165.857942 168.727479,165.266362 168.250109,163.704052 C167.215806,160.325324 166.308262,158.77377 165.182261,158.494114 C164.599707,158.34353 163.818923,157.647079 163.450781,156.935839 C163.079942,156.227287 162.607966,155.645119 162.394902,155.645119 C162.184535,155.645119 161.883819,155.192022 161.732786,154.640777 C161.252719,152.921161 158.605604,150.19586 157.735819,150.527951 C157.313737,150.687947 156.969868,151.124909 156.969868,151.500025 C156.969868,152.360505 159.297387,156.437029 160.551496,157.776151 C161.074716,158.330085 161.390266,158.967378 161.252719,159.190566 C160.923684,159.722988 161.441509,161.015052 161.987654,161.015052 C163.248505,161.015052 164.868059,163.745732 165.299581,166.608173 C165.536918,168.201405 165.882135,168.791641 166.90565,169.395322 C167.623054,169.817495 168.650614,171.075947 169.180577,172.187848 C169.714585,173.297061 170.369958,174.36056 170.635613,174.538035 C170.957906,174.761222 170.939027,174.870126 170.562794,174.872815 C170.263426,174.876849 170.135318,175.184739 170.276911,175.553132 C170.619431,176.435124 171.336836,176.413612 171.336836,175.520864 C171.336836,175.050289 171.665871,174.864748 172.344168,174.962897 C173.008981,175.054323 173.354198,175.41196 173.354198,176.002195 C173.354198,176.55344 174.078345,177.377619 175.254241,178.165496 C178.098237,180.055863 179.678685,181.67733 180.021205,183.03662 C180.510712,185.019758 181.798534,185.389495 184.2636,184.277593 C185.426011,183.751894 186.677423,183.130735 187.045565,182.904859 C187.413707,182.674949 188.023231,182.363025 188.388675,182.21513 C191.308188,181.056171 194.067228,179.610834 194.363899,179.086478 C194.560781,178.742286 195.119061,178.459941 195.599129,178.459941 C196.253154,178.459941 196.474309,178.767832 196.474309,179.710327 C196.474309,180.400055 196.72513,181.2202 197.033938,181.529435 C197.484338,181.982532 197.445232,182.178829 196.826268,182.527054 C196.404186,182.763686 196.168198,183.235606 196.299003,183.577109 C196.428459,183.915923 196.092682,185.052026 195.551931,186.108803 C195.015227,187.158857 194.08341,189.308713 193.494113,190.888501 C191.80174,195.368375 189.6293,198.328964 183.74038,204.172162 C175.602155,212.257986 171.317956,217.387254 172.704219,217.387254 C173.405441,217.387254 173.178893,219.100147 172.456094,219.258798 C171.869495,219.383836 171.864101,219.554588 172.416988,220.611365 C173.138438,221.989478 173.10877,222.81769 172.302365,223.788419 C171.544505,224.694612 172.08121,226.644137 173.161362,226.91976 C173.931358,227.122779 174.014966,227.554364 173.951586,231.101155 L173.878767,235.059363 L172.028618,236.84486 C170.979482,237.862646 169.171137,238.992026 167.860391,239.457223 C166.583357,239.903597 165.290141,240.573158 164.982682,240.938863 C164.673875,241.305911 163.646314,242.002362 162.688876,242.487727 C160.779394,243.466523 160.195491,244.380783 160.933123,245.264119 C161.50354,245.953848 161.115171,248.953428 160.380236,249.534252 C160.103793,249.748027 158.842941,250.262971 157.582089,250.670354 C155.652379,251.300925 155.162872,251.694864 154.514241,253.118689 C153.744245,254.826204 153.59591,254.937798 147.387395,258.206278 C143.584612,260.212272 141.081788,260.694947 133.391266,260.915445 C129.434754,261.025694 125.645456,261.029728 124.967159,260.918134 Z M160.184703,230.40067 C159.812516,229.462209 159.296039,232.019449 159.604846,233.269834 C159.778803,233.959562 159.901517,233.821079 160.146945,232.639263 C160.323599,231.798951 160.338433,230.79192 160.184703,230.40067 Z M150.672352,224.150089 C150.672352,223.933625 150.254316,223.644557 149.747278,223.512796 C148.989418,223.316499 148.920645,223.387758 149.354863,223.906735 C149.948205,224.620664 150.672352,224.75377 150.672352,224.150089 Z M157.145174,213.810883 C158.064854,213.810883 159.337842,212.123536 159.027686,211.316836 C158.817319,210.765591 158.435693,210.664753 157.517361,210.890629 C156.84176,211.054658 156.216054,211.380027 156.140538,211.605903 C156.055582,211.835813 155.725199,212.020009 155.39886,212.020009 C155.080613,212.020009 154.731351,212.621001 154.626167,213.34972 C154.464347,214.415908 154.601894,214.691531 155.359754,214.800435 C155.870837,214.873038 156.353602,214.682119 156.433163,214.374229 C156.511377,214.063649 156.836366,213.810883 157.145174,213.810883 Z M266.039612,154.141968 C265.612136,153.748029 265.548756,153.820632 265.776654,154.453892 C265.934429,154.902955 266.092204,155.611506 266.125916,156.01889 C266.165023,156.430307 266.279646,156.28779 266.388875,155.70831 C266.5008,155.126142 266.33898,154.421624 266.039612,154.141968 Z M265.614833,152.736965 C265.614833,151.880518 265.335693,151.880518 265.006657,152.736965 C264.862367,153.108047 264.936535,153.410559 265.180614,153.410559 C265.420648,153.410559 265.614833,153.108047 265.614833,152.736965 Z M195.578902,149.441595 C195.585644,148.811024 195.649024,148.801613 196.006377,149.375715 C196.570052,150.26174 196.997528,149.787132 198.699341,146.36269 C199.462595,144.820548 200.286531,143.566129 200.523868,143.566129 C200.761204,143.566129 200.955389,143.316052 200.94595,143.008162 C200.93651,142.697582 200.42273,143.028329 199.794327,143.736881 C198.362215,145.355659 195.507431,145.808756 193.430734,144.738534 C192.663435,144.344595 191.724876,144.141576 191.345946,144.285437 C190.674391,144.538203 187.487874,141.679796 187.487874,140.822005 C187.487874,140.609574 187.274811,140.434789 187.010504,140.434789 C186.746197,140.434789 186.661241,140.235803 186.813622,139.988415 C186.964655,139.742371 186.875653,139.542041 186.612695,139.542041 C186.353782,139.542041 186.132627,139.992448 186.12993,140.546382 C186.123188,141.359805 186.040929,141.425685 185.688969,140.881163 C185.314085,140.303028 185.250705,140.30975 185.243963,140.957799 C185.241266,141.367872 184.987747,141.814246 184.677591,141.948696 C184.293267,142.112725 184.433512,142.424649 185.12934,142.93287 C185.682227,143.340253 186.136673,143.946623 186.136673,144.278715 C186.136673,144.616184 186.419859,144.770802 186.778561,144.633663 C187.157491,144.485768 187.740045,144.89584 188.2309,145.654138 C188.678604,146.350589 189.346114,147.188213 189.720998,147.516271 C190.093185,147.840295 190.182186,148.001635 189.916531,147.867185 C189.649527,147.739458 189.425675,147.891386 189.425675,148.212722 C189.425675,148.527335 189.715604,148.786823 190.062169,148.786823 C190.489645,148.786823 190.631238,148.435909 190.499085,147.73408 C190.325128,146.830576 190.433008,146.723016 191.247505,146.969059 C192.461159,147.336108 192.382946,147.244682 192.849528,148.852704 C193.123275,149.811333 193.080123,150.296697 192.72142,150.451315 C192.353279,150.601899 192.381597,150.792818 192.833346,151.103397 C193.647843,151.657331 195.565416,150.495683 195.578902,149.441595 Z M126.876641,142.670692 C127.073523,140.917464 127.298723,140.559827 128.671501,139.876821 C130.709091,138.865757 132.499905,138.883236 133.547693,139.929257 C134.008882,140.389076 135.167247,140.910742 136.132776,141.088216 C137.090214,141.268379 138.07732,141.57358 138.325445,141.767188 C138.572221,141.963485 139.479764,142.23373 140.346853,142.374902 C141.209896,142.513386 142.930588,142.814554 144.161772,143.047152 C146.082043,143.4021 146.58908,143.342942 147.609898,142.618257 C148.86131,141.728198 151.10657,141.515767 153.838641,142.010543 C155.905898,142.388347 156.182342,142.023988 157.367677,137.275213 C158.535482,132.595008 158.249599,130.017602 156.531604,129.774247 C155.919383,129.689544 155.313905,129.908697 155.090053,130.299947 C154.510196,131.327145 152.109858,131.707638 151.200966,130.917072 C150.008888,129.87374 148.42844,129.521481 148.42844,130.297258 C148.42844,131.583944 146.071255,131.893179 144.925026,130.753043 C144.233243,130.063315 144.161772,130.083482 143.935223,131.055556 C143.687099,132.116366 142.592113,132.863908 142.592113,131.977883 C142.592113,131.708983 142.172728,131.07169 141.660296,130.563469 C141.150562,130.055248 140.847148,129.33594 140.986044,128.964858 C141.177532,128.468737 141.018408,128.370589 140.346853,128.587054 C139.707662,128.790073 139.454143,128.662346 139.454143,128.140679 C139.454143,127.744052 139.65507,127.536999 139.901846,127.687583 C140.145926,127.838167 140.34955,127.753463 140.34955,127.491286 C140.34955,127.229108 140.040742,127.015333 139.65507,127.015333 C139.115668,127.015333 138.986212,126.56627 139.064425,125.009339 C139.123759,123.906849 139.032061,122.866205 138.860801,122.698143 C138.686844,122.524702 138.549296,122.62554 138.549296,122.911918 C138.549296,123.198297 138.245883,123.430896 137.880438,123.430896 C137.512296,123.430896 137.208883,123.132416 137.208883,122.761334 C137.208883,122.396975 137.40981,122.091773 137.656586,122.091773 C137.904711,122.091773 138.10429,121.756993 138.10429,121.349609 C138.10429,120.759374 137.93303,120.814498 137.222368,121.629265 C136.728815,122.187233 135.7053,122.774779 134.933956,122.932086 L133.534208,123.21712 L134.699316,124.467505 C135.357386,125.176057 136.088276,125.580751 136.382249,125.403277 C136.665435,125.225803 136.780058,125.27555 136.635768,125.505459 C136.491478,125.735369 137.188655,126.805591 138.182503,127.882535 C139.733283,129.553749 139.888361,129.891219 139.262655,130.239444 C138.860801,130.459942 138.650434,130.833713 138.792027,131.063623 C138.936317,131.293532 138.864846,131.484451 138.62751,131.484451 C138.390173,131.484451 138.081365,131.185972 137.942469,130.821613 C137.798179,130.443808 137.389582,130.273057 136.997168,130.424985 C136.50766,130.611871 136.305385,130.408851 136.305385,129.732568 C136.305385,128.584365 135.028351,127.969928 134.471419,128.849231 C134.257006,129.193423 134.07361,130.027013 134.066867,130.703297 C134.066867,131.37958 133.859198,131.930825 133.612421,131.930825 C133.368342,131.930825 133.164718,131.773519 133.164718,131.579911 C133.164718,131.388992 132.559239,131.001776 131.821607,130.726153 C130.912715,130.38465 130.471754,129.912731 130.471754,129.284849 C130.471754,128.769906 130.181826,128.349077 129.82582,128.349077 C128.891307,128.349077 128.459785,127.420027 129.179887,126.964242 C129.630287,126.684586 129.647818,126.572992 129.239221,126.570303 C128.930413,126.567614 128.679592,126.169642 128.679592,125.693689 C128.679592,125.215047 128.471922,124.698759 128.222449,124.545486 C127.372891,124.019787 126.461302,121.168102 126.72426,119.854525 C126.934627,118.823294 126.7337,118.324484 125.766822,117.431736 C125.102009,116.81461 123.864082,116.083202 123.023964,115.803546 C122.183845,115.530613 121.496108,115.088272 121.496108,114.828784 C121.496108,114.573329 121.041662,113.919902 120.488775,113.374035 C118.819326,111.75929 117.900995,110.479326 117.900995,109.773463 C117.900995,108.755677 117.02177,108.985586 116.583506,110.117655 C116.284138,110.896121 116.439216,111.381485 117.275289,112.267511 C117.864585,112.898081 118.348698,113.727638 118.348698,114.109476 C118.348698,115.18911 120.107148,117.165525 121.078072,117.165525 C121.552745,117.165525 121.941114,117.431736 121.941114,117.750382 C121.941114,118.075751 122.856749,118.975222 123.96522,119.759066 C126.013598,121.20037 126.302178,121.787916 125.548364,122.979143 C125.192359,123.543834 124.981992,123.487365 124.182329,122.630918 C123.661806,122.075639 123.030706,121.747581 122.777187,121.904888 C122.464334,122.095807 122.473774,122.344539 122.804157,122.672597 C123.071161,122.941497 123.295013,123.503499 123.295013,123.920294 C123.295013,124.977071 121.022783,127.459018 120.05186,127.459018 C119.462563,127.459018 119.254893,127.809932 119.254893,128.802174 C119.254893,130.289191 118.409381,130.578258 117.299562,129.471735 C116.927375,129.100653 116.489111,128.802174 116.324593,128.802174 C115.639553,128.802174 113.417217,126.905084 113.417217,126.317537 C113.417217,125.522938 115.570779,124.951525 116.196485,125.575373 C116.758812,126.133341 119.784856,125.736713 120.268969,125.040262 C120.812416,124.261797 120.209635,122.546214 119.028345,121.492126 C116.595642,119.328826 115.574825,118.508681 115.291639,118.497925 C115.123076,118.491202 114.396232,117.687191 113.672085,116.708395 C112.947938,115.72691 112.08894,114.929621 111.765299,114.929621 C111.441658,114.929621 111.176003,114.726602 111.176003,114.480558 C111.176003,114.234515 111.390415,114.034184 111.660116,114.034184 C112.311444,114.034184 111.68304,112.157262 110.817301,111.526691 C110.300823,111.15292 109.78974,111.198633 108.750043,111.713577 C106.102929,113.02312 105.799515,113.141436 105.194037,113.141436 C104.858259,113.141436 103.939927,112.8201 103.149704,112.428851 C101.395299,111.55627 100.406846,111.868194 100.406846,113.298743 C100.406846,114.588118 99.8674437,115.064071 97.4900302,115.881527 C95.1234048,116.692261 92.6839601,118.871696 93.0089497,119.880071 C93.2759536,120.720383 90.7313255,123.605681 90.0786493,123.205019 C89.8709796,123.077292 89.4003515,123.277622 89.0254673,123.651394 C88.2514257,124.423137 87.0337261,124.511874 85.4397937,123.90416 C83.9577873,123.343503 82.4434167,123.795255 82.4434167,124.800941 C82.4434167,125.795871 82.8776351,126.090317 84.5376442,126.215355 C85.2388666,126.267791 86.0614543,126.552825 86.3675649,126.845926 C86.7357066,127.207596 87.3290486,127.255998 88.1624244,127.000543 C93.0709809,125.487981 94.1646181,125.438234 102.64806,126.396863 C104.00061,126.55148 106.187884,126.656351 107.494585,126.629461 C109.157291,126.597193 109.94347,126.773323 110.112033,127.214319 C110.246883,127.565233 110.641995,127.740018 110.993955,127.605568 C111.418734,127.441539 111.6291,127.674138 111.6291,128.318153 C111.6291,128.843853 111.332429,129.384342 110.973727,129.520137 C110.459947,129.723156 110.427583,129.975922 110.818649,130.738254 C112.141532,133.302215 112.159063,133.386919 111.556281,133.771446 C111.2232,133.981188 110.624464,134.15194 110.219913,134.158662 C109.815362,134.158662 109.360916,134.479998 109.208535,134.860491 C109.057502,135.261152 109.133018,135.438626 109.39328,135.274597 C109.637359,135.124013 110.519281,135.720971 111.348611,136.597585 C112.184684,137.479577 113.294503,138.193507 113.837951,138.193507 C115.628765,138.193507 118.815281,139.929257 118.815281,140.90133 C118.815281,141.46602 119.272424,141.968863 120.046466,142.267342 C120.72746,142.526831 122.193285,143.205803 123.303104,143.774527 C126.099902,145.217176 126.60694,145.066592 126.876641,142.670692 Z M135.717437,134.293112 C135.005426,134.188241 134.534798,133.872284 134.633239,133.577838 C134.834166,132.974157 134.900243,132.970124 137.764467,133.456833 C141.725024,134.138495 139.827679,134.914271 135.717437,134.293112 Z M151.567759,134.142528 C151.567759,133.495823 152.743655,132.359721 153.07269,132.687779 C153.21698,132.83164 153.845383,132.615176 154.475135,132.205103 C155.64294,131.440083 156.028612,131.784275 155.069825,132.737525 C154.773154,133.033315 154.711123,133.272636 154.930929,133.272636 C155.148039,133.272636 154.941717,133.571115 154.460301,133.932786 C153.44218,134.700496 151.567759,134.834946 151.567759,134.142528 Z M141.079091,133.049449 C141.414868,132.193003 141.695357,132.193003 141.695357,133.049449 C141.695357,133.420531 141.498476,133.7217 141.261139,133.7217 C141.019757,133.7217 140.938846,133.42322 141.079091,133.049449 Z M116.996148,131.483107 C116.996148,130.911694 117.315744,130.911694 117.670401,131.483107 C117.821433,131.733184 117.732432,131.929481 117.469473,131.929481 C117.210561,131.929481 116.996148,131.735873 116.996148,131.483107 Z M107.514813,123.129727 C107.485146,122.922674 107.501328,122.562348 107.55392,122.316305 C107.606511,122.070261 107.642921,121.03903 107.642921,120.018554 C107.642921,118.583973 107.807438,118.187345 108.38325,118.233058 C108.963107,118.278771 109.091215,117.941301 108.986031,116.64117 C108.883545,115.354483 109.054805,114.891975 109.785695,114.500726 C110.596146,114.063763 110.708072,114.129644 110.681102,115.026425 C110.66492,115.591115 110.489614,116.454284 110.295429,116.939649 C110.094502,117.431736 110.103942,118.282804 110.308914,118.830016 C110.5921,119.585625 110.157882,122.177821 109.640056,122.815114 C109.374401,123.139139 107.55392,123.40535 107.514813,123.129727 Z M97.4805907,120.326445 C97.0854789,119.689152 97.5898196,118.960433 98.4218469,118.960433 C98.8102162,118.960433 99.0408105,119.272357 98.9518092,119.705286 C98.7805491,120.604756 97.8851421,120.979872 97.4805907,120.326445 Z M99.9362175,119.433697 C99.9362175,119.174208 100.139842,118.960433 100.386618,118.960433 C100.959732,118.960433 100.959732,119.275046 100.386618,119.629994 C100.137145,119.781922 99.9362175,119.693185 99.9362175,119.433697 Z M137.253383,128.226727 C136.885242,127.862368 136.757134,127.912114 136.757134,128.413613 C136.757134,129.306361 137.358567,129.907353 137.579722,129.237792 C137.675465,128.955447 137.52713,128.499661 137.253383,128.226727 Z M187.184461,121.977491 C187.842531,121.494815 187.876244,121.219193 187.394827,119.962085 C187.088717,119.164797 186.684166,118.51137 186.489981,118.51137 C186.294448,118.51137 186.136673,118.255914 186.136673,117.94399 C186.136673,117.629377 185.732121,116.625036 185.238569,115.708087 C184.745016,114.791138 184.339116,113.761251 184.339116,113.417059 C184.339116,113.079589 184.033006,112.549856 183.667561,112.241965 C183.296722,111.936764 182.993309,111.208045 182.993309,110.623187 C182.993309,109.851444 182.742487,109.562377 182.073629,109.562377 C181.573333,109.562377 180.650956,109.056845 180.038735,108.442408 C179.417075,107.825282 178.732034,107.322439 178.517622,107.322439 C178.300513,107.322439 177.751672,106.855898 177.303968,106.288519 C176.204937,104.903684 175.104557,104.542013 174.433002,105.352747 C174.024405,105.838111 174.008223,106.268351 174.360183,107.003793 C174.623141,107.545626 174.958919,108.493499 175.100512,109.110625 C175.239408,109.725061 175.506412,110.436302 175.696551,110.686379 C176.40047,111.635596 180.892339,114.926932 181.480287,114.926932 C181.82011,114.926932 182.096553,115.229445 182.096553,115.596493 C182.096553,115.963542 181.7837,116.268743 181.398028,116.268743 C180.834353,116.268743 180.733215,116.758141 180.838398,118.839428 C180.959764,121.203059 181.064947,121.428935 182.096553,121.563385 C182.715517,121.645399 183.414042,121.900854 183.643288,122.121352 C184.264948,122.719655 186.291751,122.633607 187.184461,121.977491 Z M143.936572,120.749962 C143.936572,120.503919 143.618325,120.300899 143.238047,120.300899 C142.853723,120.300899 142.65819,120.503919 142.814616,120.749962 C143.173318,121.328097 143.936572,121.328097 143.936572,120.749962 Z M149.671762,117.89021 C151.462576,116.747385 155.610576,115.956819 155.610576,116.758141 C155.610576,117.013596 155.820942,117.095611 156.078507,116.935615 C156.336071,116.77562 156.845806,116.889902 157.201811,117.188381 C157.569953,117.490894 159.157143,117.726181 160.799621,117.726181 C163.236369,117.726181 163.924106,117.55543 164.819513,116.715117 C166.165321,115.45801 165.767512,114.512826 163.367174,113.255719 C162.43266,112.76632 160.559587,111.782146 159.198946,111.056116 C156.551832,109.651114 155.617318,109.63498 153.7402,110.960657 C152.285163,111.991888 151.120056,112.047013 151.120056,111.092418 C151.120056,110.698479 150.702019,110.268239 150.185542,110.133789 C149.546351,109.965727 149.319802,109.630946 149.472183,109.056845 C149.625913,108.469298 149.44791,108.223255 148.873447,108.223255 C148.421698,108.223255 147.95107,107.970488 147.822962,107.665287 C147.523594,106.936568 145.75975,109.038022 145.746265,110.129756 C145.735477,110.562685 145.32688,111.261825 144.83063,111.682653 C144.337078,112.10886 143.935223,113.001608 143.935223,113.691337 C143.935223,114.374343 143.750478,114.934999 143.536066,114.934999 C142.778206,114.934999 142.617734,116.927548 143.285244,117.948024 C144.233243,119.377228 147.380652,119.351682 149.671762,117.89021 Z M157.547028,107.607473 C157.679182,107.26597 157.573998,106.780606 157.316434,106.523806 C156.717698,105.922815 154.712472,106.76985 154.712472,107.623607 C154.712472,108.427619 157.238221,108.411485 157.547028,107.607473 Z M124.828263,88.7454811 C125.888187,87.94147 127.399861,87.895757 128.146932,88.6432991 C128.532605,89.0278261 128.802306,89.0506826 129.022112,88.7226246 C129.200114,88.4604471 129.670742,88.1256665 130.079339,87.973738 C130.549967,87.8002975 130.89923,87.0056979 131.047566,85.7714468 C131.175673,84.7079472 131.639559,82.788001 132.081869,81.5013144 C132.753424,79.5477557 133.109429,79.1148267 134.258355,78.8230701 C135.463918,78.5178686 135.30884,78.4492991 132.935472,78.2489686 C131.364464,78.1172076 130.166992,78.2032556 130.057763,78.4627441 C129.742213,79.2183532 128.892655,79.9067372 127.885322,80.2226948 C126.873944,80.5413413 126.170025,81.9463439 126.640653,82.707331 C126.94946,83.1967291 126.117433,84.9983592 125.347437,85.5079248 C125.077736,85.6921213 124.402135,85.8400163 123.846551,85.8453943 C122.802809,85.8521168 122.494001,86.4826874 123.286922,86.9707409 C123.961174,87.387536 123.82093,88.086676 123.060373,88.086676 C122.692231,88.086676 122.388818,87.8863455 122.388818,87.640302 C122.388818,87.3942585 121.884477,87.193928 121.265514,87.193928 C120.64655,87.193928 120.142209,87.3942585 120.142209,87.640302 C120.142209,87.8863455 120.445623,88.086676 120.813765,88.086676 C121.185952,88.086676 121.492062,88.3945666 121.492062,88.7589261 C121.486668,89.6315067 123.660458,89.6247842 124.828263,88.7454811 Z M127.774745,83.3298346 C127.774745,82.8108575 128.080856,82.1278515 128.45574,81.8172719 C129.515664,80.9312463 129.618151,81.4986254 128.652622,82.962786 C127.877231,84.1365347 127.778791,84.1795587 127.774745,83.3298346 Z M119.66349,84.5371957 C120.190756,84.2051042 120.206938,83.9362041 119.759234,83.0891691 C119.432896,82.465321 119.311531,82.390029 119.455821,82.8861495 C119.606853,83.3916816 119.387047,83.9630941 118.912373,84.3301427 C118.026406,84.9943257 118.652112,85.1744888 119.66349,84.5371957 Z M135.693164,82.938585 C136.081533,81.9302099 134.994638,80.7846958 134.24487,81.4085439 C133.770196,81.7930709 133.760757,82.078105 134.182839,82.7543885 C134.830121,83.7896536 135.343901,83.8515006 135.693164,82.938585 Z M153.365316,79.6136362 C153.365316,79.0059222 152.572395,78.6092946 152.289209,79.0691137 C152.019508,79.5020427 152.407877,80.0371538 152.990431,80.0371538 C153.198101,80.0371538 153.365316,79.8475792 153.365316,79.6136362 Z M140.058273,77.572685 C140.387308,76.7162384 140.156714,76.7162384 139.446052,77.572685 C139.121062,77.9599011 139.080607,78.2422461 139.344914,78.2422461 C139.595736,78.2449351 139.913983,77.9437671 140.058273,77.572685 Z M131.481784,75.3892168 C131.853971,74.8446942 131.742045,70.1927238 131.356373,70.1927238 C131.221523,70.1927238 130.497376,70.7574138 129.743562,71.4431089 C127.966233,73.0618871 127.432225,74.9845223 128.542044,75.8154233 C129.388905,76.4500274 130.905973,76.2335629 131.481784,75.3892168 Z M145.283728,75.7992893 C145.283728,75.2278768 144.016134,74.2141237 143.290638,74.2141237 C142.833495,74.2141237 143.024983,75.3690493 143.57787,75.9149164 C144.322244,76.6597694 145.283728,76.5911999 145.283728,75.7992893 Z M134.313644,68.5752901 C136.015456,67.279192 136.332355,66.1659459 134.987896,66.1659459 C134.108671,66.1659459 132.710272,67.2617135 132.710272,67.9514421 C132.710272,68.1584951 132.588906,68.6505821 132.440571,69.0351092 C132.052201,70.0421398 132.543057,69.9211348 134.313644,68.5752901 Z M148.20324,67.505068 C148.052208,67.2617135 147.584277,67.072139 147.16624,67.088273 C146.543231,67.117852 146.570201,67.190455 147.305136,67.505068 C148.506654,68.0240451 148.520139,68.0240451 148.20324,67.505068 Z M150.445803,65.0916903 C150.445803,64.2607892 150.185542,64.1559182 148.173573,64.1559182 C146.13868,64.1559182 145.917525,64.2473442 146.072603,65.0486663 C146.212848,65.7841079 146.621444,65.9548594 148.344833,65.9911609 C150.19633,66.0274624 150.445803,65.9225914 150.445803,65.0916903 Z M238.420891,56.8203255 C238.557089,56.60655 238.381784,56.1897549 238.036567,55.9047209 C237.518741,55.4785144 237.444573,55.5497729 237.6455,56.2986594 C237.90711,57.3124125 238.055446,57.407872 238.420891,56.8203255 Z M166.443113,43.6738032 C166.002152,43.2341517 165.946863,43.2892762 166.192291,43.9238802 C166.360854,44.3675653 166.611676,44.6136088 166.749223,44.4751253 C166.890816,44.3406753 166.749223,43.9763157 166.443113,43.6738032 Z M218.921515,31.0960045 C218.921515,31.0072675 218.569555,30.6523194 218.138034,30.3148499 C217.427372,29.7595713 217.41119,29.7770498 217.970819,30.4856014 C218.552025,31.226421 218.921515,31.4670865 218.921515,31.0960045 Z M186.591119,12.7166877 C186.591119,12.3792181 181.037977,10.7106935 180.789852,10.9769045 C180.517454,11.2726945 180.664441,11.341264 183.898155,12.4800556 C185.693015,13.1146597 186.591119,13.1926407 186.591119,12.7166877 Z M177.471183,247.016003 C177.372742,246.838529 177.264861,245.873178 177.233846,244.868836 C177.1853,243.37913 177.429379,242.807718 178.541895,241.744218 C179.729928,240.614838 179.867475,240.234344 179.624744,238.802452 C179.302452,236.922841 180.355634,234.388458 181.449271,234.388458 C182.697986,234.388458 186.170385,232.487335 187.398873,231.138801 C192.346536,225.670719 192.382946,225.637107 193.038319,226.34028 C193.913498,227.262607 194.289731,230.64268 193.581766,231.231572 C193.274307,231.484338 192.889983,231.55963 192.728163,231.402323 C192.563645,231.238294 192.431492,231.645678 192.431492,232.301794 C192.431492,232.960599 192.227868,233.497054 191.981091,233.497054 C191.732967,233.497054 191.533388,233.693351 191.533388,233.936706 C191.533388,234.455683 188.530268,239.293194 185.919564,242.985192 C184.553528,244.921272 183.644636,245.713182 182.132963,246.287284 C179.852642,247.159865 177.73549,247.489267 177.471183,247.016003 Z M201.409835,235.757159 C201.409835,235.494981 201.609414,235.281206 201.857539,235.281206 C202.43335,235.281206 202.43335,235.598508 201.857539,235.950767 C201.610762,236.102696 201.409835,236.019337 201.409835,235.757159 Z M94.9939484,208.020121 C94.9939484,207.757944 95.2016181,207.544168 95.4443489,207.544168 C96.0242058,207.544168 96.0242058,207.86147 95.4443489,208.213729 C95.198921,208.368347 94.9939484,208.282299 94.9939484,208.020121 Z M19.6975007,204.075358 C14.7066854,196.306836 8.5076101,182.2837 5.49505097,171.952561 C0.701117353,155.487812 -1.09643919,136.6796 0.659313712,121.28104 C1.39020317,114.896009 2.18716935,114.499381 2.06445544,120.588622 C1.84330069,131.850155 1.92555947,135.940125 2.39349054,136.500781 C2.66723696,136.82615 3.12438,138.500053 3.41026296,140.21698 C3.69344891,141.936595 4.11148532,143.687134 4.33533707,144.113341 C4.55649181,144.539548 4.74663095,145.853124 4.75067647,147.021495 C4.75741899,148.196588 5.03655943,150.358544 5.37638257,151.840183 C5.71890272,153.317789 6.12345408,155.529492 6.28122911,156.763743 C6.78152429,160.709851 10.4683357,169.630609 12.8524917,172.683969 C13.540229,173.576717 15.0384176,176.244205 16.1711614,178.618592 C17.3106477,180.991635 18.4137244,182.934438 18.6308336,182.934438 C19.1014617,182.934438 19.4507244,183.77475 20.2773577,186.873823 C21.1929922,190.291543 21.0743238,191.285128 19.5464682,193.179529 L18.1804331,194.873599 L19.3522836,198.412323 C20.6522419,202.351709 21.7849857,206.65142 21.5220274,206.65142 C21.4262835,206.648731 20.6063928,205.492461 19.6975007,204.075358 Z M200.958086,175.780353 C201.844054,175.20894 202.881054,175.20894 202.531791,175.780353 C202.380758,176.023707 201.811689,176.226727 201.270939,176.220004 C200.471276,176.217315 200.411942,176.133956 200.958086,175.780353 Z M174.917115,172.831864 C174.917115,172.043987 175.885341,172.18247 176.161785,173.013371 C176.260226,173.305128 176.02154,173.545793 175.627777,173.545793 C175.239408,173.544449 174.917115,173.21908 174.917115,172.831864 Z M38.6278074,156.512321 C38.4659868,156.250144 38.4403652,155.927464 38.5711702,155.797047 C38.8907657,155.475712 39.7659452,156.040402 39.7659452,156.564757 C39.7699907,157.138858 38.9932521,157.102557 38.6278074,156.512321 Z M40.2176942,154.749682 C40.2176942,154.174236 40.5372898,154.174236 40.8919465,154.749682 C41.042979,154.993036 40.9580232,155.198745 40.6910193,155.198745 C40.4321064,155.198745 40.2176942,154.995725 40.2176942,154.749682 Z M37.8605083,151.857662 C36.9583587,150.627444 36.8855395,150.275185 37.5220336,150.275185 C37.766113,150.275185 37.9697371,150.509128 37.9697371,150.798196 C37.9697371,151.087263 38.3082118,151.693633 38.7168087,152.14404 C39.1254055,152.593103 39.276438,152.952085 39.0525863,152.948051 C38.8287345,152.937295 38.2920297,152.451931 37.8605083,151.857662 Z M258.309984,138.369636 C258.131981,138.192162 257.997131,137.52529 258.009267,136.89472 L258.038934,135.737105 L258.469107,136.81405 C258.941084,137.98242 258.842643,138.902059 258.309984,138.369636 Z M58.8877395,136.01945 C58.6935548,135.707526 58.6611907,135.333755 58.8081777,135.18586 C59.2100321,134.785199 59.648296,135.376779 59.4298383,136.022139 C59.2774573,136.475236 59.1709254,136.475236 58.8877395,136.01945 Z M62.0000879,135.242329 C62.6460216,134.605036 63.2744247,134.185552 63.4025326,134.306557 C63.7544923,134.657472 62.1025743,136.409355 61.4242765,136.409355 C61.0804078,136.406666 61.3217902,135.921302 62.0000879,135.242329 Z M57.2789736,134.168074 C57.2789736,133.924719 57.5945236,133.7217 57.9801959,133.7217 C58.3658682,133.7217 58.5560074,133.924719 58.4022778,134.168074 C58.0422271,134.752931 57.2789736,134.752931 57.2789736,134.168074 Z M60.4223376,123.881303 C60.4223376,123.30989 60.7419332,123.30989 61.0965899,123.881303 C61.2476224,124.127347 61.1586211,124.327677 60.8997082,124.327677 C60.6367498,124.327677 60.4223376,124.127347 60.4223376,123.881303 Z M53.6865575,106.878754 C53.6865575,106.304653 54.0061531,106.304653 54.3608098,106.878754 C54.5118423,107.122109 54.4268865,107.327817 54.1639281,107.327817 C53.8969242,107.327817 53.6865575,107.124798 53.6865575,106.878754 Z M51.2012636,103.276839 C50.7926668,102.614 51.1190049,102.374679 51.8364093,102.823742 C52.2247786,103.056341 52.2706277,103.290284 51.9685627,103.473136 C51.7150439,103.631787 51.3684782,103.54305 51.2012636,103.276839 Z M6.61430973,99.2688836 C6.61430973,98.6544471 6.71679608,98.4016811 6.84085849,98.7109161 C6.9622239,99.0188066 6.9622239,99.5216497 6.84085849,99.8308847 C6.71544757,100.138775 6.61430973,99.8900427 6.61430973,99.2688836 Z M6.89345017,95.1963927 C6.56036955,94.3291902 7.45577656,90.3252688 7.98708735,90.3252688 C8.35253208,90.3252688 8.1219378,92.2949615 7.45307955,94.7822867 C7.23597032,95.6024318 7.09168034,95.7073028 6.89345017,95.1963927 Z M11.9314631,79.1376832 C11.9314631,78.8943286 12.1323903,78.6913091 12.3791666,78.6913091 C12.6259429,78.6913091 12.8268701,78.8943286 12.8268701,79.1376832 C12.8268701,79.3837267 12.6259429,79.5867462 12.3791666,79.5867462 C12.1323903,79.5867462 11.9314631,79.3837267 11.9314631,79.1376832 Z M13.2745736,76.6597694 C13.2745736,76.1018019 14.7066854,73.7059026 14.9103096,73.9129557 C15.1543889,74.1522767 13.8463395,76.9071574 13.4876373,76.9071574 C13.3730145,76.9031239 13.2745736,76.7942194 13.2745736,76.6597694 Z M106.233734,73.6884241 C106.226991,73.2675956 106.437358,72.795676 106.704362,72.634336 C107.49054,72.144938 107.606511,72.661226 106.907986,73.5795196 C106.329477,74.3391622 106.247219,74.3485737 106.233734,73.6884241 Z M15.0748272,72.9301261 C15.0748272,72.6840825 15.2784514,72.3587135 15.5252277,72.2081295 C15.769307,72.053512 15.9729312,72.128804 15.9729312,72.376192 C15.9729312,72.62358 15.769307,72.9502936 15.5252277,73.1022221 C15.2797999,73.2528061 15.0748272,73.1775141 15.0748272,72.9301261 Z M102.372965,68.4045386 C102.372965,67.9124516 102.639969,67.505068 102.964959,67.505068 C103.419405,67.505068 103.449072,67.7188436 103.076885,68.4045386 C102.474103,69.5231627 102.372965,69.5231627 102.372965,68.4045386 Z M44.4223313,65.6079783 C44.474923,65.3000878 44.6664107,64.7972448 44.8605953,64.4880097 C45.0844471,64.1303727 44.9563391,63.9273532 44.5113326,63.9273532 C44.1256603,63.9273532 43.8101103,63.6355967 43.8101103,63.2712371 C43.8101103,62.8477196 44.0703717,62.7159586 44.5504393,62.9041886 C45.2975108,63.1892226 45.2745862,62.6218436 44.4223313,59.7594028 C44.2510713,59.1947127 44.4654835,58.8733772 45.1168112,58.7053147 C45.6332884,58.5708647 46.0553703,58.3248211 46.0553703,58.1567586 C46.0553703,57.9927296 46.418118,57.8287006 46.8712156,57.7991216 C48.2372507,57.6942506 51.453434,56.1413529 51.2956589,55.6586774 C51.2134002,55.4126338 50.6834379,55.1800353 50.119763,55.1531453 C48.924988,55.0912983 48.2197201,54.1783827 48.5487552,53.1242946 C48.6768631,52.7142221 48.5716798,52.2449915 48.3154639,52.087685 C48.0552026,51.926345 47.8475329,52.1696995 47.8475329,52.6362411 C47.8475329,53.0960601 47.5508619,53.8610807 47.1894626,54.3397227 C46.1592052,55.6990124 46.3264197,54.1595597 47.3998293,52.3996091 C48.6350595,50.3868924 48.5325732,49.7764893 46.8954887,49.4484313 C44.6893352,49.0087797 44.5747124,49.1002057 45.8948983,50.2295858 C47.1031584,51.2661954 47.1099009,51.3159419 46.3587838,52.4681786 C45.9340049,53.1148831 45.2853742,53.6432717 44.923975,53.6432717 C44.5585303,53.6432717 44.2591623,53.8234347 44.2591623,54.0398992 C44.2591623,54.2563637 43.8478684,54.5427423 43.3435277,54.6731588 C42.8459295,54.8049198 42.4683483,55.0805423 42.5101519,55.2875953 C42.7043366,56.2784919 41.8291571,58.5695202 41.2587397,58.5695202 C40.9027345,58.5695202 40.7220349,58.7469942 40.8541883,58.9567362 C40.9863418,59.1705117 41.6511545,59.2552152 42.3361948,59.1530332 C43.4756812,58.9728702 43.5174848,59.0145497 42.8000804,59.5967183 C42.3685589,59.9449438 42.0139022,60.4867773 42.0139022,60.7919789 C42.0139022,61.4911189 39.864386,61.0218884 38.8341286,60.0995613 C38.4484563,59.7513358 37.7809465,59.4663017 37.3588646,59.4663017 C36.7169764,59.4663017 36.6778698,59.3116842 37.1026487,58.5170846 C37.3831377,57.9954186 37.9980557,57.469719 38.4659868,57.3446805 C38.9339179,57.2236755 39.3182417,56.934608 39.3182417,56.700665 C39.3182417,56.4747889 39.1469816,56.3860519 38.9366149,56.5164685 C38.7262482,56.644196 38.3243938,56.2542909 38.0479504,55.6465769 C37.771507,55.0361738 37.3669556,54.5440868 37.1431039,54.5440868 C36.4648061,54.5440868 34.3935031,56.3591619 34.502732,56.8579715 C34.5593692,57.120149 34.3179869,57.4387955 33.9727697,57.5638341 C33.5345057,57.7251741 33.4293224,57.5665231 33.62081,57.0650245 C33.7785851,56.6616745 33.7057658,56.3336164 33.4697775,56.3336164 C33.2337892,56.3336164 33.0355591,55.9988359 33.0355591,55.5887634 C33.0355591,54.9030683 32.9762249,54.9030683 32.2129713,55.5887634 C31.7625708,55.9988359 31.1759713,56.3336164 30.9157099,56.3336164 C30.6527515,56.3336164 29.4471885,57.219642 28.2389284,58.2992756 C26.4346294,59.9140203 25.8129688,60.2232553 24.7759688,60.0296473 C23.7713329,59.8387283 23.2872198,60.0525038 22.4093433,61.0837354 L21.3035696,62.3771445 L22.0937933,60.9331514 C22.5280117,60.1452743 24.6154968,57.184685 26.7259063,54.3612347 C46.6581519,27.7118976 75.7278641,9.36888234 108.284809,2.89914771 C120.979631,0.371487458 136.229868,-0.675878144 143.785539,0.450812966 C145.964723,0.776181998 147.286257,1.11365153 146.71584,1.20911104 C146.142725,1.30053705 145.564217,1.66220758 145.429366,2.01312212 C145.285076,2.38689316 144.566324,2.64638168 143.687099,2.64638168 C142.04462,2.64638168 141.211244,3.35224425 142.469399,3.68030228 C143.127469,3.8537428 143.105893,3.8940778 142.341291,3.93575731 C141.83695,3.96802531 141.182926,4.22751384 140.888952,4.52061486 C140.523507,4.8822854 137.514993,5.08799392 131.259281,5.17000843 C120.42135,5.31790344 119.670233,5.39991795 116.520126,6.78878659 C115.177016,7.37902214 113.034242,7.9867362 111.75586,8.13732022 C110.47478,8.28790423 109.058851,8.61058426 108.60845,8.85662779 C108.160747,9.09998231 107.19252,9.42804034 106.465676,9.58534686 C105.483965,9.79239988 105.307311,9.9658404 105.773894,10.2522189 C106.116414,10.4619609 106.560072,10.5439755 106.755605,10.4229704 C106.947093,10.3046544 107.815529,10.4001139 108.681269,10.636746 C109.626571,10.8989235 110.353415,10.905646 110.508493,10.663636 C110.650086,10.4377599 110.508493,10.2535634 110.199685,10.2535634 C109.84368,10.2535634 109.791089,10.0989459 110.055395,9.84349089 C110.822695,9.10536031 113.618144,9.14435082 114.700994,9.89995989 C115.678659,10.582966 115.692144,10.6515355 114.908663,11.0521965 C114.07259,11.4824365 110.977773,12.2205671 107.955774,12.7005537 C106.731332,12.9008842 106.247219,13.2262532 106.055731,13.9966518 C105.811652,14.9620029 105.568921,15.0332614 102.529392,15.0332614 C99.0300224,15.0332614 94.8982045,15.9851675 95.1449809,16.7367431 C95.348605,17.3511796 97.6140927,17.5837781 98.2856479,17.0580786 C100.115569,15.6140855 104.689696,15.3277069 104.165128,16.6937191 C103.895427,17.3955481 105.169764,18.0368747 105.567572,17.3995816 C105.711862,17.1629496 106.2189,16.9693416 106.703013,16.9693416 C107.200611,16.9693416 107.575496,16.6614511 107.575496,16.250034 C107.575496,15.774081 107.819575,15.6194635 108.283461,15.800971 C108.675875,15.948866 109.294839,16.0739045 109.662981,16.0739045 C110.245535,16.0739045 110.245535,16.158608 109.642753,16.7569106 C108.549116,17.8473002 109.178868,18.5988757 111.012834,18.3851002 C112.136138,18.2533392 112.536644,18.3528322 112.32358,18.6997133 C112.110516,19.0465943 112.659358,19.2052453 114.075288,19.2052453 C115.491217,19.2052453 116.215364,19.4149873 116.396064,19.8721174 C116.537657,20.2391659 116.935466,20.5443674 117.277986,20.5443674 C117.837615,20.5443674 118.093831,21.0929235 117.791766,21.6441685 C117.729735,21.7557621 118.077649,22.1362556 118.561762,22.4871701 C119.319622,23.0384152 119.368168,23.2911812 118.913722,24.2861113 C118.621096,24.9166819 117.886161,25.5633864 117.284728,25.7139704 L116.187046,25.9882485 L117.155272,26.9562886 C117.691977,27.4887106 118.567156,27.9606302 119.103861,28.0103767 C119.640566,28.0560897 120.707233,28.4137267 121.474532,28.8076652 C122.570866,29.3723553 122.833824,29.7689828 122.715156,30.6617309 C122.632897,31.285579 122.274195,31.9806856 121.91819,32.2011836 C121.43138,32.5131076 121.413849,32.6112561 121.858856,32.6152896 C122.181148,32.6179786 122.320044,32.8290651 122.167663,33.0751087 C122.016631,33.3184632 122.20677,33.5214827 122.589745,33.5214827 C122.978114,33.5214827 123.290967,33.8239952 123.290967,34.1910438 C123.290967,34.5554033 123.014524,34.8606048 122.672004,34.8606048 C121.733445,34.8606048 117.900995,36.6393785 117.900995,37.0763411 C117.900995,37.2901166 117.446549,37.3748201 116.889616,37.2766716 C116.332684,37.1744896 116.131757,37.2040686 116.439216,37.3519636 C116.85051,37.5482606 116.870737,37.8440506 116.514732,38.5136117 C116.247728,39.0056987 115.911951,39.2947663 115.770358,39.1535938 C115.628765,39.0151102 115.286245,39.2100628 115.009801,39.5905563 C114.729312,39.9683608 114.140016,40.3327204 113.692312,40.3986009 C112.740268,40.5370844 112.052531,41.4889905 112.351899,42.2593891 C112.532598,42.7326531 111.604827,43.1790271 110.033819,43.3793577 C109.78974,43.4116257 109.30293,43.6711142 108.967152,43.9534592 C108.621935,44.2331153 108.065003,44.4684028 107.731922,44.4724363 C107.037442,44.4791588 103.527285,47.7315046 103.527285,48.3714867 C103.527285,48.5973627 103.095764,48.6538317 102.569847,48.4898027 C101.960323,48.2935056 101.720289,48.3553527 101.911777,48.6538317 C102.145068,49.0343252 98.6295166,49.9539633 97.6950029,49.7536328 C93.8099614,48.9361767 92.2524386,48.8810522 88.3741396,49.4094408 C86.7869498,49.6299388 85.8133295,49.5640583 85.384505,49.2091102 C84.8909524,48.8017267 84.3839147,48.8353392 83.136548,49.3529718 C82.2505805,49.7200203 81.5237366,50.2067293 81.5237366,50.4258829 C81.5237366,50.6423474 80.8953335,50.8467114 80.1239889,50.8695679 C79.3566898,50.8924244 77.3582061,51.627866 75.6833634,52.5004466 C72.0855533,54.3881247 71.4126496,54.4889623 71.8643986,53.0906821 C72.0424012,52.5354036 72.2298433,51.442325 72.2891775,50.6584814 C72.4172855,48.8366837 73.915474,46.89657 78.0540344,43.2099507 C81.9255909,39.7532408 87.3614127,36.931135 87.3614127,38.3751282 C87.3614127,38.5848702 87.8711474,38.6641957 88.4968535,38.5458797 C89.5540811,38.3428602 89.5729601,38.2863912 88.8326311,37.7122896 C88.0720746,37.1247431 88.0788171,37.062896 88.9351175,36.393335 C89.4286701,36.0061189 90.3834114,35.7667979 91.0590121,35.8649464 C91.9611617,35.9926739 92.363016,35.8125109 92.5531551,35.2115194 C92.7082332,34.7194323 94.3641967,33.6653442 96.5959717,32.6220121 C100.938156,30.6066064 102.683121,29.1330343 102.327116,27.7764336 C102.132931,27.0544371 102.471406,26.66991 103.917003,25.9317795 C104.924336,25.4195249 105.902002,25.0323089 106.093489,25.0753329 C106.287674,25.1183569 106.792015,25.0000409 107.216793,24.8131554 C107.717089,24.5966908 108.569343,24.8333229 109.619829,25.4759939 C110.933272,26.2840385 111.325687,26.3620195 111.625055,25.876655 C112.451688,24.5442553 108.892985,23.6353732 101.392602,23.2710137 C100.058931,23.2024442 100.115569,22.2599496 101.54768,20.5658794 C102.41342,19.5386813 102.534786,19.1931448 102.022354,19.1931448 C101.64747,19.1931448 101.209206,19.4028868 101.044688,19.6623753 C100.850504,19.9742994 100.359648,19.8761509 99.5963943,19.3827193 C98.5796219,18.7198808 98.0793267,18.6903018 95.4551369,19.1595323 C93.8153554,19.4512888 91.8735089,20.0818594 91.1520589,20.5578124 C90.4238665,21.0364545 89.4691253,21.425015 89.0214218,21.430393 C88.5737183,21.430393 88.3336845,21.6334125 88.484717,21.8794561 C88.9486025,22.6243091 90.5128678,22.3782656 91.9881317,21.3349335 C93.5186844,20.2485774 98.7441395,19.6180068 99.5505452,20.4220179 C100.36639,21.2354405 97.8082773,24.2524988 95.171951,25.5889319 C93.8194009,26.274627 92.5936103,27.1310736 92.4560628,27.4900551 C92.3185154,27.8490366 91.922055,28.1434822 91.5768379,28.1434822 C91.2343177,28.1434822 90.9443892,28.3935592 90.9376467,28.7014497 C90.9241617,29.3118528 87.3452306,31.274823 86.2461994,31.274823 C85.8740122,31.274823 85.0109693,31.9188385 84.33402,32.7053711 C81.4724934,36.0168749 81.2027925,36.194349 79.2312789,36.119057 L77.344721,36.046454 L78.7606508,34.7893463 C79.5373894,34.0928953 80.1765805,33.4166117 80.1765805,33.2794727 C80.1765805,32.8102421 78.234734,34.0740723 76.8255468,35.4656299 C76.0447626,36.2333395 74.6463634,37.0938196 73.7172438,37.3694421 C72.5480904,37.7176676 72.1759031,37.7243901 72.5089838,37.3963321 C73.3450566,36.565431 73.0322035,36.0235974 72.1705091,36.799374 C70.7977315,38.0363141 70.635911,37.6329641 71.7295481,35.6901614 C72.2986171,34.6723748 73.6093635,33.1530897 74.6369239,32.3087436 C75.6671814,31.465742 76.7176664,30.1817444 76.9711853,29.4557143 C77.2408862,28.6974162 77.932669,27.9485297 78.6109668,27.6930746 C80.1253374,27.1189731 80.175232,27.1256956 80.175232,27.9323957 C80.175232,28.8681677 81.5156455,29.3145418 82.0091982,28.5427987 C82.2923842,28.0991137 82.407007,28.0802907 82.4137496,28.4809517 C82.4164466,28.7861532 82.6402983,29.0389193 82.9180903,29.0389193 C83.2012762,29.0389193 83.3132021,28.6422917 83.1783516,28.1192812 C83.0043945,27.4564426 83.2107157,27.0947721 83.9321657,26.823183 C84.475613,26.61613 85.1930174,26.124043 85.526098,25.7301044 C85.8551331,25.3388549 86.6022046,25.0107969 87.1888041,25.0107969 C87.7781006,25.0107969 88.2527742,24.8306339 88.2527742,24.6101358 C88.2527742,24.3802263 87.5582944,24.3775373 86.5698405,24.6034133 C85.6474634,24.8239114 84.0413945,24.8830694 83.0138341,24.7351743 C81.4010227,24.5119873 80.8481358,24.6733273 79.0532763,25.9075785 C77.9043504,26.691422 76.8309408,27.2009876 76.6637262,27.0329251 C76.4924662,26.8648626 76.7230604,26.465546 77.1680669,26.1361435 C77.7182568,25.7354824 77.8166976,25.4437259 77.4768745,25.2339839 C76.6772113,24.7418968 78.3587964,23.1526977 79.3472503,23.4686552 C80.5582073,23.8531823 81.204141,23.2911812 80.4341449,22.5261606 C80.0781397,22.1712126 79.5980721,21.8821451 79.3647808,21.8821451 C79.127444,21.8821451 78.686483,21.5796325 78.3803725,21.212584 C77.6764531,20.3655489 75.3610709,20.3561374 73.8898524,21.1924165 C73.2708888,21.543331 72.0788108,22.1443226 71.240041,22.5315386 C70.3972257,22.9160657 68.8599305,23.9889768 67.816188,24.9086149 C66.7697485,25.8242194 65.0706328,27.2561121 64.0336328,28.0856687 C62.9966328,28.9152253 61.9326627,30.0620839 61.6737498,30.6294629 C61.414837,31.196842 60.5801127,31.9188385 59.8236016,32.2347961 C59.0657421,32.5467201 57.8318604,33.3372862 57.0780464,33.9880242 C56.3201868,34.6414513 55.1254118,35.4750414 54.4147499,35.8461234 C53.380447,36.374512 53.2658241,36.565431 53.8524235,36.7845845 C54.2542779,36.941891 54.58601,36.869288 54.58601,36.629967 C54.58601,36.3973685 54.7963767,36.197038 55.0606836,36.197038 C55.3249905,36.197038 56.2783832,35.6941949 57.1913208,35.0743804 C58.1069553,34.4572548 58.9201036,34.1587758 59.0023624,34.4048193 C59.4042167,35.6027689 63.7625834,34.1883548 65.4778811,32.2939541 C65.9094026,31.818001 66.7185053,31.4670865 67.2727407,31.5154885 C67.829673,31.565235 68.6886704,31.387761 69.1795261,31.12155 C70.2259656,30.5568599 73.0605221,29.5068053 73.5675598,29.4973938 C73.7590475,29.4947048 73.6066665,29.9639354 73.2290852,30.5380369 C72.8542009,31.1094495 72.6492282,31.68624 72.7840787,31.8220345 C72.9162321,31.9537955 72.3094051,32.6852036 71.4409682,33.4502242 C70.5657887,34.2112113 69.8510813,35.0421124 69.8510813,35.2921894 C69.8510813,35.5382329 69.0972673,36.059899 68.1748902,36.447115 C66.3975612,37.1852456 64.4651542,38.7609997 64.4651542,39.4762738 C64.4651542,39.7155948 65.3673038,39.8016428 66.5850033,39.6631593 C68.3919994,39.4601398 68.5902296,39.5085418 67.9186743,40.0006288 C67.1446327,40.5653189 63.5832323,43.7558177 60.3926705,46.7500195 C59.506703,47.5768871 58.5195977,49.0612152 58.1905626,50.0427003 C57.8642245,51.0309079 57.4502336,51.743493 57.272231,51.6345885 C57.0874859,51.522995 56.6964196,52.015082 56.3997486,52.7303561 C55.6027824,54.6543358 53.0446693,56.856627 52.3731141,56.1897549 C51.9685627,55.7931274 51.9119255,55.8415294 52.1222922,56.3994969 C52.3299619,56.9278855 52.0265484,57.259977 51.028655,57.6041691 C50.2707955,57.8663466 49.6558774,58.3947351 49.6558774,58.7765732 C49.6558774,59.1611002 49.4117981,59.4689907 49.1164756,59.4689907 C48.7186668,59.4689907 48.7078787,59.6007518 49.0841115,59.9745228 C49.7233027,60.6118159 49.3214483,61.639014 47.9284431,62.9283896 C47.3229646,63.4863571 46.989884,63.9461762 47.1840686,63.9461762 C47.3782533,63.9461762 46.992581,64.4490192 46.3277682,65.0661448 C44.9981428,66.2708169 44.2901779,66.4805589 44.4223313,65.6079783 Z M39.5164718,46.7043065 C39.7308841,45.8075249 39.6850349,45.5130794 39.3843184,45.8075249 C39.1402391,46.0508794 38.7923249,46.8575795 38.6210648,47.5930211 C38.4066526,48.4924917 38.4565473,48.7882817 38.7532183,48.4924917 C38.9999946,48.2464481 39.3452118,47.4424371 39.5164718,46.7043065 Z M38.3189998,45.7819794 C38.378334,45.1218298 38.2299985,44.7547813 37.9670401,44.9120878 C37.4465174,45.2374568 37.3615616,46.9274935 37.8753418,46.9274935 C38.068178,46.92346 38.2691052,46.4112055 38.3189998,45.7819794 Z M43.1345095,41.560249 C44.0892507,40.5101944 43.3057696,40.3354094 42.2687696,41.366641 C41.4758489,42.154518 41.3868476,42.4529971 41.9424315,42.4529971 C42.1541467,42.4529971 42.686806,42.049647 43.1345095,41.560249 Z M45.8315186,37.5294376 C46.1834783,36.9620585 45.5914848,36.9620585 44.7082143,37.5294376 C44.1256603,37.9005196 44.1391454,37.9664001 44.7931701,37.9731226 C45.212555,37.9758116 45.6764406,37.7781701 45.8315186,37.5294376 Z M50.2006733,34.7490113 C50.9747149,34.0297038 51.3792662,33.3077072 51.1850816,32.9998167 C50.9679723,32.6515911 51.0502311,32.5897441 51.4318579,32.8263761 C51.8175302,33.0589747 51.9388956,32.9742711 51.7999996,32.5574761 C51.5329957,31.7628765 50.8884106,31.887915 50.3179932,32.8492326 C50.0739138,33.2660277 49.3174028,34.1722208 48.6350595,34.8619493 C47.9567617,35.5543669 47.3998293,36.3624115 47.3998293,36.656857 C47.4011779,37.2376811 47.8461843,36.9378575 50.2006733,34.7490113 Z M89.831873,25.0040744 C89.676795,24.7580308 89.3518054,24.5577003 89.1009835,24.5577003 C88.8569042,24.5577003 88.778691,24.7580308 88.9297235,25.0040744 C89.080756,25.2501179 89.4097911,25.4531374 89.6579159,25.4531374 C89.9060407,25.4531374 89.984254,25.2501179 89.831873,25.0040744 Z M108.389992,19.6435523 C109.035926,19.6502748 109.045366,19.7094329 108.462812,20.0832039 C107.876212,20.4610084 107.882955,20.5201664 108.524843,20.5228554 C108.919955,20.5295779 109.489024,20.2472329 109.782998,19.8963184 C110.198337,19.3934753 110.13226,19.2106233 109.44722,18.9901253 C108.26593,18.6163542 107.110262,19.1312978 107.152065,20.0173234 C107.17499,20.4865539 107.270734,20.5457119 107.412327,20.1947974 C107.541783,19.8828734 107.978699,19.6395188 108.389992,19.6435523 Z M95.1099197,15.6087074 C95.4888495,15.6087074 95.9136284,15.3061949 96.0552214,14.9391464 C96.4044841,14.0396758 95.9594776,14.0961448 94.1848456,15.1690559 C93.3096662,15.701478 92.8349926,16.2755795 93.0197377,16.5767475 C93.2408925,16.9276621 93.5038508,16.8590926 93.8760381,16.346838 C94.1781031,15.940799 94.73099,15.6087074 95.1099197,15.6087074 Z M100.156024,11.5846186 C100.311102,11.338575 100.235585,11.1355555 99.9847636,11.1355555 C99.7379873,11.1355555 99.4116492,11.338575 99.2565712,11.5846186 C99.1014932,11.8279731 99.1837519,12.0309926 99.4305283,12.0309926 C99.6773046,12.0309926 100.004991,11.8279731 100.156024,11.5846186 Z M103.974989,8.00287021 C103.974989,7.75682668 103.671575,7.55380716 103.303433,7.55380716 C102.935292,7.55380716 102.631878,7.75682668 102.631878,8.00287021 C102.631878,8.24622473 102.935292,8.44924425 103.303433,8.44924425 C103.671575,8.44924425 103.974989,8.24622473 103.974989,8.00287021 Z M93.2031343,60.5593803 C93.2031343,60.1815758 92.8970238,59.7580583 92.5288821,59.6168858 C91.6563996,59.2821052 91.6563996,58.5627977 92.5288821,58.5627977 C92.8970238,58.5627977 93.2031343,58.2575961 93.2031343,57.8932366 C93.2031343,57.5221546 92.9887221,57.2209865 92.7230667,57.2209865 C92.4628053,57.2209865 92.371107,57.0300675 92.515397,56.79478 C92.659687,56.5594925 93.111436,56.4922675 93.5159874,56.646885 C94.0917988,56.867383 94.1808001,56.749067 93.9380693,56.1050514 C93.5861096,55.1961693 94.2711499,54.5561873 95.6102149,54.5454313 C96.2291785,54.5387088 96.3842565,54.7686183 96.2129965,55.4314568 C96.0322968,56.1211854 96.1995114,56.3309274 96.9465829,56.3336164 C97.4765452,56.3336164 98.6888508,56.5433585 99.6233644,56.8068805 C101.194372,57.243843 101.32248,57.397116 101.197069,58.7012812 C101.01637,60.5553468 99.6206674,61.2383529 96.0053268,61.2491089 C93.7829913,61.2450754 93.2031343,61.1012139 93.2031343,60.5593803 Z M155.01184,56.918474 C154.392876,56.3040374 154.746184,55.4287678 155.610576,55.4287678 C156.209312,55.4287678 156.510028,55.7272469 156.510028,56.3255494 C156.511377,57.184685 155.630803,57.5329106 155.01184,56.918474 Z M130.527043,44.3594983 C130.246554,43.8337987 130.020005,43.0929791 130.020005,42.7057631 C130.020005,42.3252696 129.816381,42.006623 129.569605,42.006623 C129.042339,42.006623 128.980308,40.2372609 129.487346,39.4426613 C129.69097,39.1240148 130.442087,38.9693972 131.275463,39.0756127 C132.065686,39.1777948 132.714317,39.0783017 132.714317,38.8658707 C132.714317,38.4490757 135.733619,38.6036932 136.17458,39.0433447 C136.615541,39.4762738 135.302097,40.7212809 134.662906,40.4738929 C133.836273,40.1592799 133.90235,41.0977409 134.777529,42.0563695 C135.613602,42.9786966 135.294006,43.7692627 134.119459,43.6778367 C133.55983,43.6348127 133.358902,43.3565012 133.500495,42.8106341 C133.863243,41.4378995 132.986715,41.93402 131.988822,43.6643917 C131.074536,45.2495574 131.021944,45.2764474 130.527043,44.3594983 Z M70.1801164,38.3657167 C70.48353,38.0605151 70.8422322,37.9260651 70.9797796,38.0632041 C71.1173271,38.2003432 70.8745963,38.4504202 70.4268928,38.6184827 C69.7917471,38.8658707 69.743201,38.8134352 70.1801164,38.3657167 Z M163.236369,37.7432131 C162.411084,36.7550055 162.880364,36.640723 163.806786,37.6047296 C164.236959,38.0578261 164.414962,38.4248747 164.197853,38.4248747 C163.978046,38.4248747 163.545176,38.1196732 163.236369,37.7432131 Z M143.180061,37.6934666 C142.809222,37.5428826 142.871253,37.2444036 143.403913,36.7092925 C143.935223,36.1741815 144.31685,36.078722 144.674204,36.401402 C144.95739,36.654168 145.082801,37.038695 144.950647,37.2551596 C144.815797,37.4716241 144.989754,37.5536386 145.332274,37.4353226 C145.727386,37.3008726 145.905389,36.716015 145.816387,35.8138554 C145.677491,34.4478433 145.711204,34.4182643 146.899236,34.8686718 C147.785204,35.2061414 148.216725,35.1940409 148.444623,34.8189253 C148.671171,34.4478433 148.849174,34.4411208 149.070329,34.7987578 C149.241589,35.0716914 149.152587,35.2948784 148.874795,35.2948784 C148.597004,35.2948784 148.497214,35.4978979 148.650944,35.7439414 C148.806022,35.9872959 148.664429,36.1930045 148.342136,36.197038 C147.91466,36.2037605 147.937585,36.3220765 148.425743,36.6366895 C148.974585,36.9916375 148.915251,37.0736521 148.12233,37.0803746 C147.591019,37.0830636 147.051617,36.834331 146.926206,36.525096 C146.781916,36.1768705 146.686173,36.240062 146.663248,36.70257 C146.614702,37.7781701 144.720053,38.3173147 143.180061,37.6934666 Z M61.0615288,33.1114102 C61.1963792,32.8949456 61.7627511,32.6031891 62.3223805,32.4620166 C63.3040918,32.2186621 63.3094858,32.2361406 62.470716,32.8559551 C61.5024898,33.5739182 60.682599,33.7245022 61.0615288,33.1114102 Z M72.5440449,28.5817892 C73.4259668,28.0144102 74.0220058,28.0144102 73.6673492,28.5817892 C73.5163166,28.8251437 73.0510826,29.0281633 72.6330462,29.0254743 C71.974976,29.0174073 71.9655364,28.9582493 72.5440449,28.5817892 Z M74.7893049,26.3458855 C74.7893049,26.102531 75.0954155,25.8968225 75.4635572,25.8968225 C75.8316989,25.8968225 76.1351125,26.1038755 76.1351125,26.3458855 C76.1351125,26.5878955 75.8316989,26.7949485 75.4635572,26.7949485 C75.0927184,26.796293 74.7893049,26.58924 74.7893049,26.3458855 Z M114.873602,18.4684592 C115.024635,18.3205642 115.410307,18.3044302 115.736645,18.4321577 C116.088605,18.5733302 115.987467,18.6822348 115.462899,18.7010578 C114.988225,18.7239143 114.725267,18.6163542 114.873602,18.4684592 Z M111.86374,17.8580562 C111.386369,17.6899937 111.185442,17.4506726 111.416037,17.3256341 C112.012076,16.9975761 115.899814,16.8496811 115.584264,17.1642941 C115.034074,17.7128502 112.69307,18.1498127 111.86374,17.8580562 Z M114.862814,15.760636 C113.905376,15.3761089 114.243851,14.6447009 115.313215,14.7952849 C115.866102,14.8746104 116.270653,15.1435104 116.208622,15.3855204 C116.07512,15.930043 115.613931,16.0550815 114.862814,15.760636 Z M108.466857,15.4608124 C108.466857,15.3196399 108.924,14.7092369 109.487675,14.1122788 C110.225307,13.3244017 111.153078,12.9439082 112.802299,12.7691232 C114.067196,12.6346732 115.627416,12.3913186 116.272001,12.2313231 C117.144484,12.0108251 117.443852,12.1103181 117.443852,12.5956827 C117.443852,13.4884307 116.265259,14.4268918 115.636856,14.0396758 C115.363109,13.8689243 114.191259,13.8756468 113.039636,14.0558098 C111.36749,14.3152983 111.120714,14.4524373 111.838118,14.7415049 C112.651267,15.0695629 112.631039,15.1031754 111.614267,15.1381324 C110.995303,15.1582999 110.037865,15.2954389 109.480933,15.4433339 C108.919955,15.5925734 108.466857,15.5992959 108.466857,15.4608124 Z M151.450439,7.25801713 C151.753853,7.13701212 152.363377,7.13028962 152.797595,7.24188313 C153.234511,7.35616564 152.985037,7.45565865 152.244708,7.46507015 C151.503031,7.47448165 151.144329,7.38305564 151.450439,7.25801713 Z" id="Shape" fill="#4A90E2" fill-rule="nonzero"></path>
            </g>
        </g>
        <path d="M153.5,25 L153.5,500.275185" id="Line" stroke="#4A4A4A" stroke-width="16" fill="#4A90E2" stroke-linecap="square"></path>
    </g>
</svg>